<?xml version="1.0" encoding="utf-8"?>
<!-- Generator: Adobe Illustrator 24.3.0, SVG Export Plug-In . SVG Version: 6.00 Build 0)  -->
<svg version="1.1" id="Layer_1" xmlns="http://www.w3.org/2000/svg" xmlns:xlink="http://www.w3.org/1999/xlink" x="0px" y="0px"
	 viewBox="0 0 95 95" style="enable-background:new 0 0 95 95;" xml:space="preserve">
<style type="text/css">
	.st0{fill:#CBD1D8;}
</style>
<g id="Layer_2_1_">
</g>
<g id="Layer_1_1_">
	<path class="st0" d="M58,47.5l34.8-34.8c2.9-2.9,2.9-7.6,0-10.5s-7.6-2.9-10.5,0L47.5,37L12.7,2.2c-2.9-2.9-7.6-2.9-10.5,0
		s-2.9,7.6,0,10.5L37,47.5L2.2,82.3c-2.9,2.9-2.9,7.6,0,10.5C3.6,94.2,5.5,95,7.4,95s3.8-0.7,5.2-2.2L47.5,58l34.8,34.8
		c1.4,1.4,3.3,2.2,5.2,2.2c1.9,0,3.8-0.7,5.2-2.2c2.9-2.9,2.9-7.6,0-10.5L58,47.5z"/>
</g>
</svg>